<svg width="93" height="24" viewBox="0 0 93 24" fill="none" xmlns="http://www.w3.org/2000/svg">
<path d="M24.6487 16.224H28.3287V18H22.4087V6.832H24.6487V16.224ZM29.1764 13.536C29.1764 12.64 29.3524 11.8453 29.7044 11.152C30.0671 10.4587 30.5524 9.92533 31.1604 9.552C31.7791 9.17867 32.4671 8.992 33.2244 8.992C33.8858 8.992 34.4618 9.12533 34.9524 9.392C35.4538 9.65867 35.8538 9.99467 36.1524 10.4V9.136H38.4084V18H36.1524V16.704C35.8644 17.12 35.4644 17.4667 34.9524 17.744C34.4511 18.0107 33.8698 18.144 33.2084 18.144C32.4618 18.144 31.7791 17.952 31.1604 17.568C30.5524 17.184 30.0671 16.6453 29.7044 15.952C29.3524 15.248 29.1764 14.4427 29.1764 13.536ZM36.1524 13.568C36.1524 13.024 36.0458 12.56 35.8324 12.176C35.6191 11.7813 35.3311 11.4827 34.9684 11.28C34.6058 11.0667 34.2164 10.96 33.8004 10.96C33.3844 10.96 33.0004 11.0613 32.6484 11.264C32.2964 11.4667 32.0084 11.7653 31.7844 12.16C31.5711 12.544 31.4644 13.0027 31.4644 13.536C31.4644 14.0693 31.5711 14.5387 31.7844 14.944C32.0084 15.3387 32.2964 15.6427 32.6484 15.856C33.0111 16.0693 33.3951 16.176 33.8004 16.176C34.2164 16.176 34.6058 16.0747 34.9684 15.872C35.3311 15.6587 35.6191 15.36 35.8324 14.976C36.0458 14.5813 36.1524 14.112 36.1524 13.568ZM52.8842 9.136L50.2922 18H47.8762L46.2602 11.808L44.6442 18H42.2122L39.6042 9.136H41.8762L43.4442 15.888L45.1402 9.136H47.5082L49.1722 15.872L50.7402 9.136H52.8842ZM57.9522 18.112C57.1735 18.112 56.4695 17.9787 55.8402 17.712C55.2215 17.4453 54.7309 17.0613 54.3682 16.56C54.0055 16.0587 53.8189 15.4667 53.8082 14.784H56.2082C56.2402 15.2427 56.4002 15.6053 56.6882 15.872C56.9869 16.1387 57.3922 16.272 57.9042 16.272C58.4269 16.272 58.8375 16.1493 59.1362 15.904C59.4349 15.648 59.5842 15.3173 59.5842 14.912C59.5842 14.5813 59.4829 14.3093 59.2802 14.096C59.0775 13.8827 58.8215 13.7173 58.5122 13.6C58.2135 13.472 57.7975 13.3333 57.2642 13.184C56.5389 12.9707 55.9469 12.7627 55.4882 12.56C55.0402 12.3467 54.6509 12.032 54.3202 11.616C54.0002 11.1893 53.8402 10.624 53.8402 9.92C53.8402 9.25867 54.0055 8.68267 54.3362 8.192C54.6669 7.70133 55.1309 7.328 55.7282 7.072C56.3255 6.80533 57.0082 6.672 57.7762 6.672C58.9282 6.672 59.8615 6.95467 60.5762 7.52C61.3015 8.07467 61.7015 8.85333 61.7762 9.856H59.3122C59.2909 9.472 59.1255 9.15733 58.8162 8.912C58.5175 8.656 58.1175 8.528 57.6162 8.528C57.1789 8.528 56.8269 8.64 56.5602 8.864C56.3042 9.088 56.1762 9.41333 56.1762 9.84C56.1762 10.1387 56.2722 10.3893 56.4642 10.592C56.6669 10.784 56.9122 10.944 57.2002 11.072C57.4989 11.1893 57.9149 11.328 58.4482 11.488C59.1735 11.7013 59.7655 11.9147 60.2242 12.128C60.6829 12.3413 61.0775 12.6613 61.4082 13.088C61.7389 13.5147 61.9042 14.0747 61.9042 14.768C61.9042 15.3653 61.7495 15.92 61.4402 16.432C61.1309 16.944 60.6775 17.3547 60.0802 17.664C59.4829 17.9627 58.7735 18.112 57.9522 18.112ZM72.2142 9.136V18H69.9582V16.88C69.6702 17.264 69.2915 17.568 68.8222 17.792C68.3635 18.0053 67.8622 18.112 67.3182 18.112C66.6249 18.112 66.0115 17.968 65.4782 17.68C64.9449 17.3813 64.5235 16.9493 64.2142 16.384C63.9155 15.808 63.7662 15.1253 63.7662 14.336V9.136H66.0062V14.016C66.0062 14.72 66.1822 15.264 66.5342 15.648C66.8862 16.0213 67.3662 16.208 67.9742 16.208C68.5929 16.208 69.0782 16.0213 69.4302 15.648C69.7822 15.264 69.9582 14.72 69.9582 14.016V9.136H72.2142ZM75.5603 8.08C75.1656 8.08 74.835 7.95733 74.5683 7.712C74.3123 7.456 74.1843 7.14133 74.1843 6.768C74.1843 6.39467 74.3123 6.08533 74.5683 5.84C74.835 5.584 75.1656 5.456 75.5603 5.456C75.955 5.456 76.2803 5.584 76.5363 5.84C76.803 6.08533 76.9363 6.39467 76.9363 6.768C76.9363 7.14133 76.803 7.456 76.5363 7.712C76.2803 7.95733 75.955 8.08 75.5603 8.08ZM76.6643 9.136V18H74.4243V9.136H76.6643ZM81.4854 10.976V15.264C81.4854 15.5627 81.5548 15.7813 81.6934 15.92C81.8428 16.048 82.0881 16.112 82.4294 16.112H83.4694V18H82.0614C80.1734 18 79.2294 17.0827 79.2294 15.248V10.976H78.1734V9.136H79.2294V6.944H81.4854V9.136H83.4694V10.976H81.4854ZM88.4726 18.144C87.7472 18.144 87.0966 18.016 86.5206 17.76C85.9446 17.4933 85.4859 17.136 85.1446 16.688C84.8139 16.24 84.6326 15.744 84.6006 15.2H86.8566C86.8992 15.5413 87.0646 15.824 87.3526 16.048C87.6512 16.272 88.0192 16.384 88.4566 16.384C88.8832 16.384 89.2139 16.2987 89.4486 16.128C89.6939 15.9573 89.8166 15.7387 89.8166 15.472C89.8166 15.184 89.6672 14.9707 89.3686 14.832C89.0806 14.6827 88.6166 14.5227 87.9766 14.352C87.3152 14.192 86.7712 14.0267 86.3446 13.856C85.9286 13.6853 85.5659 13.424 85.2566 13.072C84.9579 12.72 84.8086 12.2453 84.8086 11.648C84.8086 11.1573 84.9472 10.7093 85.2246 10.304C85.5126 9.89867 85.9179 9.57867 86.4406 9.344C86.9739 9.10933 87.5979 8.992 88.3126 8.992C89.3686 8.992 90.2112 9.25867 90.8406 9.792C91.4699 10.3147 91.8166 11.024 91.8806 11.92H89.7366C89.7046 11.568 89.5552 11.2907 89.2886 11.088C89.0326 10.8747 88.6859 10.768 88.2486 10.768C87.8432 10.768 87.5286 10.8427 87.3046 10.992C87.0912 11.1413 86.9846 11.3493 86.9846 11.616C86.9846 11.9147 87.1339 12.144 87.4326 12.304C87.7312 12.4533 88.1952 12.608 88.8246 12.768C89.4646 12.928 89.9926 13.0933 90.4086 13.264C90.8246 13.4347 91.1819 13.7013 91.4806 14.064C91.7899 14.416 91.9499 14.8853 91.9606 15.472C91.9606 15.984 91.8166 16.4427 91.5286 16.848C91.2512 17.2533 90.8459 17.5733 90.3126 17.808C89.7899 18.032 89.1766 18.144 88.4726 18.144Z" fill="black"/>
<path d="M1 3V15.5568C1.06674 16.2765 1.93251 17.9943 4.86161 19.108C7.85937 17.1761 11.4693 14.8561 12.8995 13.9375M12.213 4.25H5.83417V12.7159L16.6181 5.44318L16.9899 15.5568C17.0471 16.75 16.9327 17.7443 14.673 19.108C12.705 20.3807 9.65764 22.233 8.37997 23" stroke="#407CE2" stroke-width="2"/>
</svg>
