<svg width="252" height="68" viewBox="0 0 252 68" fill="none" xmlns="http://www.w3.org/2000/svg">
<rect y="12" width="50" height="50" rx="10" fill="url(#paint0_linear_2561_207)"/>
<g filter="url(#filter0_d_2561_207)">
<path d="M13.4933 21H10.0724C10.0724 21 9.82839 33.8548 10.2364 41.2228C10.4317 44.75 18.0545 48.6691 18.0545 48.6691L31.0865 40.3605V36.363L18.0545 44.75C18.0545 44.75 14.6088 43.3001 13.8191 41.3795C13.3835 40.3203 13.4933 38.4794 13.4933 38.4794V21Z" fill="white"/>
<path d="M18.0545 39.4983V21.5487H32.3909L28.1554 24.2921H21.2322V33.6196L39.0698 21.5487V42.3201L38.1738 44.5148L36.7077 46.2393L24.9789 53.3721L21.9652 51.2558L34.4271 43.731L35.6489 42.3201L35.8932 39.8903V27.6625L18.0545 39.4983Z" fill="white"/>
</g>
<path d="M62.2451 44V12.98H69.0651V38.236H83.4091V44H62.2451ZM94.1998 44.484C92.5864 44.484 91.1638 44.176 89.9318 43.56C88.6998 42.944 87.7171 42.108 86.9838 41.052C86.2798 39.996 85.9278 38.808 85.9278 37.488C85.9278 35.9333 86.3384 34.6867 87.1598 33.748C87.9811 32.8093 89.3158 32.1493 91.1638 31.768C93.0118 31.3573 95.4611 31.152 98.5118 31.152H100.096V30.404C100.096 29.1133 99.8024 28.204 99.2158 27.676C98.6291 27.1187 97.6318 26.84 96.2238 26.84C95.0504 26.84 93.8038 27.0307 92.4838 27.412C91.1931 27.764 89.9024 28.3067 88.6118 29.04L86.8078 24.596C87.5704 24.0973 88.4944 23.6427 89.5798 23.232C90.6944 22.8213 91.8531 22.5133 93.0558 22.308C94.2584 22.0733 95.4024 21.956 96.4878 21.956C99.8318 21.956 102.325 22.7187 103.968 24.244C105.61 25.74 106.432 28.072 106.432 31.24V44H100.228V40.744C99.7878 41.888 99.0398 42.7973 97.9838 43.472C96.9571 44.1467 95.6958 44.484 94.1998 44.484ZM95.6958 40.04C96.9278 40.04 97.9691 39.6147 98.8198 38.764C99.6704 37.9133 100.096 36.8133 100.096 35.464V34.584H98.5558C96.2971 34.584 94.6984 34.7893 93.7598 35.2C92.8211 35.5813 92.3518 36.256 92.3518 37.224C92.3518 38.0453 92.6304 38.72 93.1878 39.248C93.7744 39.776 94.6104 40.04 95.6958 40.04ZM117.289 44L108.489 22.396H115.221L120.369 36.256L125.517 22.396H129.917L135.065 36.432L140.213 22.396H146.593L137.881 44H132.249L127.497 31.724L122.877 44H117.289ZM160.732 44.484C158.297 44.484 155.994 44.176 153.824 43.56C151.682 42.944 149.893 42.108 148.456 41.052L150.436 35.684C151.814 36.652 153.384 37.4147 155.144 37.972C156.933 38.5293 158.796 38.808 160.732 38.808C162.844 38.808 164.354 38.4853 165.264 37.84C166.202 37.1653 166.672 36.3293 166.672 35.332C166.672 34.4813 166.349 33.8067 165.704 33.308C165.058 32.8093 163.929 32.384 162.316 32.032L157.344 30.976C151.8 29.8027 149.028 26.928 149.028 22.352C149.028 20.3867 149.556 18.6707 150.612 17.204C151.668 15.708 153.134 14.5493 155.012 13.728C156.918 12.9067 159.118 12.496 161.612 12.496C163.753 12.496 165.762 12.804 167.64 13.42C169.517 14.036 171.072 14.9013 172.304 16.016L170.324 21.032C167.918 19.1253 165 18.172 161.568 18.172C159.72 18.172 158.282 18.5387 157.256 19.272C156.258 19.976 155.76 20.9 155.76 22.044C155.76 22.8947 156.068 23.584 156.684 24.112C157.3 24.64 158.37 25.0653 159.896 25.388L164.868 26.444C170.558 27.676 173.404 30.4627 173.404 34.804C173.404 36.74 172.876 38.4413 171.82 39.908C170.793 41.3453 169.326 42.4747 167.42 43.296C165.542 44.088 163.313 44.484 160.732 44.484ZM185.223 44.484C182.466 44.484 180.427 43.7213 179.107 42.196C177.816 40.6707 177.171 38.3827 177.171 35.332V22.396H183.815V35.508C183.815 38.06 184.915 39.336 187.115 39.336C188.376 39.336 189.403 38.896 190.195 38.016C191.016 37.1067 191.427 35.9187 191.427 34.452V22.396H198.071V44H191.603V41.052C190.166 43.34 188.039 44.484 185.223 44.484ZM202.948 18.216V12.012H210.12V18.216H202.948ZM203.212 44V22.396H209.856V44H203.212ZM225.59 44.484C219.518 44.484 216.482 41.536 216.482 35.64V27.368H212.39V22.396H216.482V16.06H223.126V22.396H229.506V27.368H223.126V35.376C223.126 36.608 223.404 37.532 223.962 38.148C224.548 38.764 225.472 39.072 226.734 39.072C227.115 39.072 227.511 39.028 227.922 38.94C228.362 38.852 228.831 38.7347 229.33 38.588L230.298 43.428C229.682 43.7507 228.948 44 228.098 44.176C227.247 44.3813 226.411 44.484 225.59 44.484ZM241.047 44.484C239.14 44.484 237.365 44.264 235.723 43.824C234.08 43.384 232.716 42.7827 231.631 42.02L233.215 37.708C234.3 38.3827 235.532 38.9253 236.911 39.336C238.319 39.7173 239.712 39.908 241.091 39.908C242.323 39.908 243.232 39.7173 243.819 39.336C244.405 38.9253 244.699 38.3973 244.699 37.752C244.699 36.7253 243.951 36.08 242.455 35.816L237.835 34.98C235.987 34.6573 234.579 33.9973 233.611 33C232.643 32.0027 232.159 30.6973 232.159 29.084C232.159 27.6173 232.569 26.356 233.391 25.3C234.212 24.244 235.341 23.4227 236.779 22.836C238.216 22.2493 239.873 21.956 241.751 21.956C243.305 21.956 244.816 22.1613 246.283 22.572C247.749 22.9533 249.011 23.5693 250.067 24.42L248.395 28.688C247.515 28.0427 246.459 27.5147 245.227 27.104C244.024 26.6933 242.895 26.488 241.839 26.488C240.519 26.488 239.565 26.708 238.979 27.148C238.392 27.5587 238.099 28.0867 238.099 28.732C238.099 29.7587 238.788 30.404 240.167 30.668L244.787 31.504C246.693 31.8267 248.145 32.472 249.143 33.44C250.14 34.3787 250.639 35.6693 250.639 37.312C250.639 39.5707 249.759 41.3307 247.999 42.592C246.239 43.8533 243.921 44.484 241.047 44.484Z" fill="black"/>
<path d="M62.5229 62V50.72H69.6909V52.064H64.1869V55.664H69.3549V57.008H64.1869V62H62.5229ZM74.3014 62.144C73.5121 62.144 72.8294 61.9787 72.2534 61.648C71.6774 61.3173 71.2294 60.8533 70.9094 60.256C70.6001 59.648 70.4454 58.928 70.4454 58.096C70.4454 57.264 70.6001 56.5493 70.9094 55.952C71.2294 55.344 71.6774 54.8747 72.2534 54.544C72.8294 54.2133 73.5121 54.048 74.3014 54.048C75.0694 54.048 75.7414 54.2133 76.3174 54.544C76.8934 54.8747 77.3414 55.344 77.6614 55.952C77.9814 56.5493 78.1414 57.264 78.1414 58.096C78.1414 58.928 77.9814 59.648 77.6614 60.256C77.3414 60.8533 76.8934 61.3173 76.3174 61.648C75.7414 61.9787 75.0694 62.144 74.3014 62.144ZM74.3014 60.896C74.9628 60.896 75.4961 60.656 75.9014 60.176C76.3068 59.696 76.5094 59.0027 76.5094 58.096C76.5094 57.1893 76.3068 56.5013 75.9014 56.032C75.4961 55.552 74.9628 55.312 74.3014 55.312C73.6294 55.312 73.0908 55.552 72.6854 56.032C72.2801 56.5013 72.0774 57.1893 72.0774 58.096C72.0774 59.0027 72.2801 59.696 72.6854 60.176C73.0908 60.656 73.6294 60.896 74.3014 60.896ZM79.9563 62V54.192H81.5243V55.584C81.9296 54.656 82.7723 54.1387 84.0523 54.032L84.5803 54L84.6923 55.376L83.7163 55.472C82.2976 55.6107 81.5883 56.3413 81.5883 57.664V62H79.9563ZM90.3042 62V50.72H91.9682V60.576H97.5522V62H90.3042ZM102.642 62.144C101.757 62.144 100.946 62.032 100.21 61.808C99.4743 61.5733 98.8503 61.248 98.3383 60.832L98.8663 59.52C99.3996 59.9253 99.9703 60.2293 100.578 60.432C101.186 60.6347 101.874 60.736 102.642 60.736C103.549 60.736 104.216 60.576 104.642 60.256C105.08 59.9253 105.298 59.4987 105.298 58.976C105.298 58.5493 105.144 58.2133 104.834 57.968C104.525 57.712 104.008 57.5093 103.282 57.36L101.57 57.008C100.557 56.7947 99.7996 56.4427 99.2983 55.952C98.8076 55.4613 98.5623 54.8 98.5623 53.968C98.5623 53.296 98.7383 52.704 99.0903 52.192C99.453 51.68 99.9543 51.2853 100.594 51.008C101.234 50.72 101.97 50.576 102.802 50.576C103.57 50.576 104.28 50.6933 104.93 50.928C105.592 51.152 106.152 51.4827 106.61 51.92L106.066 53.184C105.16 52.384 104.066 51.984 102.786 51.984C101.997 51.984 101.368 52.16 100.898 52.512C100.44 52.864 100.21 53.3333 100.21 53.92C100.21 54.368 100.354 54.7253 100.642 54.992C100.93 55.2587 101.41 55.4613 102.082 55.6L103.778 55.952C104.845 56.176 105.64 56.5227 106.162 56.992C106.685 57.4507 106.946 58.0747 106.946 58.864C106.946 59.5253 106.77 60.1013 106.418 60.592C106.066 61.0827 105.57 61.4667 104.93 61.744C104.29 62.0107 103.528 62.144 102.642 62.144ZM108.835 62V50.72H113.507C114.723 50.72 115.662 51.024 116.323 51.632C116.985 52.2293 117.315 53.072 117.315 54.16C117.315 55.2587 116.985 56.112 116.323 56.72C115.662 57.3173 114.723 57.616 113.507 57.616H110.499V62H108.835ZM110.499 56.288H113.267C114.889 56.288 115.699 55.5787 115.699 54.16C115.699 52.752 114.889 52.048 113.267 52.048H110.499V56.288Z" fill="#484848"/>
<defs>
<filter id="filter0_d_2561_207" x="6" y="21" width="37.0693" height="40.373" filterUnits="userSpaceOnUse" color-interpolation-filters="sRGB">
<feFlood flood-opacity="0" result="BackgroundImageFix"/>
<feColorMatrix in="SourceAlpha" type="matrix" values="0 0 0 0 0 0 0 0 0 0 0 0 0 0 0 0 0 0 127 0" result="hardAlpha"/>
<feOffset dy="4"/>
<feGaussianBlur stdDeviation="2"/>
<feComposite in2="hardAlpha" operator="out"/>
<feColorMatrix type="matrix" values="0 0 0 0 0.137007 0 0 0 0 0.37465 0 0 0 0 0.906326 0 0 0 1 0"/>
<feBlend mode="normal" in2="BackgroundImageFix" result="effect1_dropShadow_2561_207"/>
<feBlend mode="normal" in="SourceGraphic" in2="effect1_dropShadow_2561_207" result="shape"/>
</filter>
<linearGradient id="paint0_linear_2561_207" x1="5.23256" y1="59.3837" x2="46.5116" y2="15.1977" gradientUnits="userSpaceOnUse">
<stop stop-color="#125BFF"/>
<stop offset="0.389583" stop-color="#407BFF"/>
</linearGradient>
</defs>
</svg>
